<?xml version="1.0" encoding="UTF-8"?>
<svg id="Layer_1" xmlns="http://www.w3.org/2000/svg" version="1.1" xmlns:xlink="http://www.w3.org/1999/xlink" viewBox="0 0 355.7 84.1">
  <!-- Generator: Adobe Illustrator 29.0.1, SVG Export Plug-In . SVG Version: 2.1.0 Build 192)  -->
  <defs>
    <style>
      .st0 {
        opacity: .2;
      }

      .st0, .st1 {
        fill: #fa7275;
      }
    </style>
  </defs>
  <rect class="st0" x="5.8" y="1.5" width="74.8" height="74.8" rx="37.4" ry="37.4"/>
  <path class="st1" d="M63.5,32.6h0c13.8,0,24.9,11.2,24.9,24.9h0c0,13.8-11.2,24.9-24.9,24.9h0c-13.8,0-24.9-11.2-24.9-24.9h0c0-13.8,11.2-24.9,24.9-24.9Z"/>
  <image width="386" height="163" transform="translate(-466.9 47.3)" xlink:href="logo-full-1.png"/>
  <g>
    <path class="st1" d="M125.4,48.5h-13.4l-2.6,6.2h-5.1l12.1-26.8h4.9l12.1,26.8h-5.2l-2.7-6.2ZM123.7,44.6l-5.1-11.7-5,11.7h10.1Z"/>
    <path class="st1" d="M156.1,26.3v28.5h-4.6v-2.6c-1.6,2-4,2.9-6.8,2.9-5.9,0-10.4-4.1-10.4-10.5s4.4-10.5,10.4-10.5,5,.9,6.6,2.8v-10.5h4.8ZM151.4,44.5c0-3.9-2.6-6.4-6.1-6.4s-6.1,2.5-6.1,6.4,2.6,6.4,6.1,6.4,6.1-2.5,6.1-6.4Z"/>
    <path class="st1" d="M196.6,43v11.7h-4.8v-11.1c0-3.6-1.7-5.4-4.6-5.4s-5.3,2.1-5.3,6.1v10.4h-4.8v-11.1c0-3.6-1.7-5.4-4.6-5.4s-5.3,2.1-5.3,6.1v10.4h-4.8v-20.5h4.6v2.6c1.5-1.8,3.9-2.8,6.7-2.8s5.5,1.1,6.9,3.4c1.6-2.1,4.4-3.4,7.7-3.4,4.9,0,8.4,2.8,8.4,9Z"/>
    <path class="st1" d="M202.1,28c0-1.6,1.3-2.9,3.1-2.9s3.1,1.2,3.1,2.8-1.3,3-3.1,3-3.1-1.3-3.1-2.9ZM202.7,34.2h4.8v20.5h-4.8v-20.5Z"/>
    <path class="st1" d="M234,43v11.7h-4.8v-11.1c0-3.6-1.8-5.4-4.9-5.4s-5.7,2.1-5.7,6.2v10.4h-4.8v-20.5h4.6v2.6c1.6-1.9,4.1-2.9,7.1-2.9,4.9,0,8.6,2.8,8.6,9Z"/>
    <path class="st1" d="M263,37.4c0,5.9-4.4,9.5-11.4,9.5h-6.1v7.7h-5v-26.8h11c7.1,0,11.4,3.6,11.4,9.5ZM258,37.4c0-3.4-2.3-5.3-6.6-5.3h-5.8v10.7h5.8c4.4,0,6.6-2,6.6-5.3Z"/>
    <path class="st1" d="M284.5,42.7v12h-4.5v-2.5c-1.2,1.8-3.4,2.8-6.4,2.8-4.7,0-7.6-2.6-7.6-6.1s2.3-6.1,8.5-6.1h5.3v-.3c0-2.8-1.7-4.4-5.1-4.4s-4.7.8-6.2,2l-1.9-3.5c2.2-1.7,5.4-2.5,8.7-2.5,5.9,0,9.3,2.8,9.3,8.7ZM279.7,48.3v-2.4h-4.9c-3.3,0-4.1,1.2-4.1,2.7s1.5,2.8,3.9,2.8,4.4-1.1,5.2-3.2Z"/>
    <path class="st1" d="M310.8,43v11.7h-4.8v-11.1c0-3.6-1.8-5.4-4.9-5.4s-5.7,2.1-5.7,6.2v10.4h-4.8v-20.5h4.6v2.6c1.6-1.9,4.1-2.9,7.1-2.9,4.9,0,8.6,2.8,8.6,9Z"/>
    <path class="st1" d="M336.3,46h-16.1c.6,3,3.1,4.9,6.6,4.9s4.1-.7,5.6-2.2l2.6,3c-1.8,2.2-4.7,3.3-8.2,3.3-6.9,0-11.3-4.4-11.3-10.5s4.5-10.5,10.6-10.5,10.4,4.2,10.4,10.6,0,1,0,1.4ZM320.2,42.8h11.6c-.4-3-2.6-5-5.8-5s-5.4,2-5.8,5Z"/>
    <path class="st1" d="M341,26.3h4.8v28.5h-4.8v-28.5Z"/>
  </g>
</svg>